<?xml version="1.0" standalone="no"?>
<!DOCTYPE svg PUBLIC "-//W3C//DTD SVG 20010904//EN"
 "http://www.w3.org/TR/2001/REC-SVG-20010904/DTD/svg10.dtd">
<svg version="1.0" xmlns="http://www.w3.org/2000/svg"
 width="355.000000pt" height="227.000000pt" viewBox="0 0 355.000000 227.000000"
 preserveAspectRatio="xMidYMid meet">
<g transform="translate(0.000000,227.000000) scale(0.100000,-0.100000)"
fill="#000000" stroke="none"><path d="M944 1886 c-28 -28 -34 -42 -34 -75 0 -90 47 -126 154 -122 18 1 40
13 62 35 29 29 34 41 34 81 0 40 -5 52 -34 81 -31 31 -40 34 -91 34 -51 0 -60
-3 -91 -34z"/><path d="M1910 1905 c-43 -23 -64 -84 -49 -140 27 -96 189 -106 236 -14 28 54
0 139 -53 159 -36 14 -105 12 -134 -5z"/><path d="M2622 1907 c-72 -41 -77 -157 -8 -202 30 -20 112 -23 145 -6 28 15
61 69 61 99 0 40 -28 90 -59 106 -36 19 -107 20 -139 3z"/><path d="M459 1586 c-25 -6 -62 -22 -83 -34 -20 -12 -39 -22 -42 -22 -2 0 -4
14 -4 30 l0 30 -110 0 -110 0 2 -607 3 -608 108 -3 107 -3 0 216 c0 118 2 215
4 215 2 0 25 -12 52 -27 45 -26 58 -28 154 -28 93 0 112 3 163 27 64 30 154
110 183 163 10 19 22 35 27 35 4 0 7 -52 5 -115 l-3 -115 205 2 205 3 85 127
c47 70 88 127 91 128 3 0 45 -58 94 -130 l89 -130 208 0 208 0 0 425 0 425
-222 -2 -223 -3 -71 -104 c-39 -58 -75 -106 -80 -108 -5 -1 -42 47 -83 107
l-75 110 -215 0 -216 0 3 -115 c3 -115 -4 -139 -27 -88 -20 45 -70 102 -118
134 -88 61 -226 89 -314 65z m1399 -567 l-3 -173 -108 158 c-60 86 -111 164
-113 171 -3 8 45 89 108 182 l113 167 3 -166 c1 -92 1 -244 0 -339z m-579 315
l102 -150 -111 -162 c-61 -89 -113 -162 -116 -162 -2 0 -4 147 -4 327 0 276 2
325 14 313 7 -8 59 -83 115 -166z m-651 40 c124 -62 158 -245 65 -353 -107
-126 -282 -114 -344 24 -25 54 -26 202 -3 252 45 94 177 130 282 77z"/><path d="M2574 1585 c-2 -5 -5 -216 -6 -467 -3 -443 -4 -457 -24 -485 -33 -45
-98 -73 -171 -73 l-63 0 0 -95 0 -95 123 0 c164 0 213 15 283 84 67 68 94 146
94 275 l0 87 82 -40 81 -41 126 0 c117 0 130 2 181 27 65 32 118 80 136 125 8
18 14 68 14 112 0 67 -4 87 -28 132 -24 47 -37 58 -92 87 -36 17 -100 39 -142
47 -126 23 -171 52 -148 95 16 30 49 42 114 43 63 1 94 -10 134 -46 25 -24 15
-30 102 66 l52 59 -23 24 c-13 14 -52 39 -88 57 -60 29 -72 31 -170 32 -96 0
-112 -3 -166 -28 -70 -33 -121 -78 -144 -127 l-16 -35 -3 96 -3 96 -116 -1
c-67 0 -117 -5 -119 -11z m319 -451 c51 -32 108 -52 202 -68 105 -18 138 -36
133 -73 -10 -83 -180 -94 -291 -19 l-36 25 -39 -45 c-22 -24 -42 -44 -46 -44
-3 0 -6 75 -6 168 l0 167 26 -45 c13 -25 39 -54 57 -66z"/><path d="M3520 1293 c1 -10 7 -45 14 -78 l14 -60 1 78 c1 62 -2 77 -14 77 -8
0 -15 -8 -15 -17z"/><path d="M2293 969 c-49 -14 -83 -62 -83 -116 0 -38 5 -50 34 -79 31 -31 40
-34 91 -34 51 0 60 3 91 34 29 29 34 41 34 81 0 40 -5 52 -34 81 -19 19 -43
34 -54 34 -11 0 -26 2 -34 4 -7 2 -27 0 -45 -5z"/>
</g></svg>
